<mxfile host="Electron" agent="Mozilla/5.0 (Windows NT 10.0; Win64; x64) AppleWebKit/537.36 (KHTML, like Gecko) draw.io/27.0.9 Chrome/134.0.6998.205 Electron/35.4.0 Safari/537.36" version="27.0.9">
  <diagram name="Page-1" id="GlwBMy6LZtAjzkm5miIR">
    <mxGraphModel dx="2723" dy="922" grid="1" gridSize="10" guides="1" tooltips="1" connect="1" arrows="1" fold="1" page="1" pageScale="1" pageWidth="1169" pageHeight="827" math="0" shadow="0">
      <root>
        <mxCell id="0" />
        <mxCell id="1" parent="0" />
        <mxCell id="8rsW4NHF1swcHX3-PvVH-1" value="High Level Architecture" style="text;html=1;align=center;verticalAlign=middle;resizable=0;points=[];autosize=1;strokeColor=none;fillColor=none;fontSize=21;fontStyle=5;rounded=1;" parent="1" vertex="1">
          <mxGeometry x="-704" y="15" width="240" height="40" as="geometry" />
        </mxCell>
        <mxCell id="8rsW4NHF1swcHX3-PvVH-2" value="" style="rounded=1;whiteSpace=wrap;html=1;fillColor=none;dashed=1;fontColor=#333333;strokeColor=#999999;" parent="1" vertex="1">
          <mxGeometry x="-1120" y="120" width="120" height="560" as="geometry" />
        </mxCell>
        <mxCell id="8rsW4NHF1swcHX3-PvVH-3" value="Sources" style="rounded=1;whiteSpace=wrap;html=1;fontSize=24;strokeColor=none;" parent="1" vertex="1">
          <mxGeometry x="-1110" y="100" width="100" height="40" as="geometry" />
        </mxCell>
        <mxCell id="8rsW4NHF1swcHX3-PvVH-4" value="" style="rounded=1;whiteSpace=wrap;html=1;fillColor=none;dashed=1;fontColor=#333333;strokeColor=#999999;" parent="1" vertex="1">
          <mxGeometry x="-880" y="120" width="600" height="600" as="geometry" />
        </mxCell>
        <mxCell id="8rsW4NHF1swcHX3-PvVH-5" value="Data Warehouse" style="rounded=1;whiteSpace=wrap;html=1;fontSize=24;strokeColor=none;" parent="1" vertex="1">
          <mxGeometry x="-695" y="100" width="190" height="40" as="geometry" />
        </mxCell>
        <mxCell id="8rsW4NHF1swcHX3-PvVH-6" value="" style="rounded=1;whiteSpace=wrap;html=1;fillColor=none;dashed=1;fontColor=#333333;strokeColor=#999999;" parent="1" vertex="1">
          <mxGeometry x="-160" y="120" width="120" height="560" as="geometry" />
        </mxCell>
        <mxCell id="8rsW4NHF1swcHX3-PvVH-7" value="Consume" style="rounded=1;whiteSpace=wrap;html=1;fontSize=24;strokeColor=none;" parent="1" vertex="1">
          <mxGeometry x="-150" y="100" width="100" height="40" as="geometry" />
        </mxCell>
        <mxCell id="8rsW4NHF1swcHX3-PvVH-8" value="Bronze Layer" style="rounded=1;whiteSpace=wrap;html=1;fillColor=#ffe6cc;strokeColor=#d79b00;fontSize=16;fontStyle=1;" parent="1" vertex="1">
          <mxGeometry x="-850" y="160" width="140" height="40" as="geometry" />
        </mxCell>
        <mxCell id="8rsW4NHF1swcHX3-PvVH-9" value="" style="rounded=1;whiteSpace=wrap;html=1;fillColor=none;strokeColor=#d79b00;fontSize=16;fontStyle=1;" parent="1" vertex="1">
          <mxGeometry x="-850" y="220" width="140" height="460" as="geometry" />
        </mxCell>
        <mxCell id="8rsW4NHF1swcHX3-PvVH-10" value="Silver Layer" style="rounded=1;whiteSpace=wrap;html=1;fillColor=#f5f5f5;strokeColor=#666666;fontSize=16;fontStyle=1;fontColor=#333333;" parent="1" vertex="1">
          <mxGeometry x="-650" y="160" width="140" height="40" as="geometry" />
        </mxCell>
        <mxCell id="8rsW4NHF1swcHX3-PvVH-11" value="" style="rounded=1;whiteSpace=wrap;html=1;fillColor=none;strokeColor=#B3B3B3;fontSize=16;fontStyle=1;" parent="1" vertex="1">
          <mxGeometry x="-650" y="220" width="140" height="460" as="geometry" />
        </mxCell>
        <mxCell id="8rsW4NHF1swcHX3-PvVH-12" value="Gold Layer" style="rounded=1;whiteSpace=wrap;html=1;fillColor=#FFD966;strokeColor=#d6b656;fontSize=16;fontStyle=1;" parent="1" vertex="1">
          <mxGeometry x="-450" y="160" width="140" height="40" as="geometry" />
        </mxCell>
        <mxCell id="8rsW4NHF1swcHX3-PvVH-13" value="" style="rounded=1;whiteSpace=wrap;html=1;fillColor=none;strokeColor=#FFD966;fontSize=16;fontStyle=1;" parent="1" vertex="1">
          <mxGeometry x="-450" y="220" width="140" height="460" as="geometry" />
        </mxCell>
        <mxCell id="8rsW4NHF1swcHX3-PvVH-14" value="&lt;b&gt;&lt;font style=&quot;font-size: 15px;&quot;&gt;CRM&lt;/font&gt;&lt;/b&gt;" style="image;aspect=fixed;html=1;points=[];align=center;fontSize=12;image=img/lib/azure2/general/Folder_Blank.svg;rounded=1;" parent="1" vertex="1">
          <mxGeometry x="-1090.81" y="200" width="61.61" height="50" as="geometry" />
        </mxCell>
        <mxCell id="8rsW4NHF1swcHX3-PvVH-18" value="&lt;b&gt;&lt;font style=&quot;font-size: 15px;&quot;&gt;ERP&lt;/font&gt;&lt;/b&gt;" style="image;aspect=fixed;html=1;points=[];align=center;fontSize=12;image=img/lib/azure2/general/Folder_Blank.svg;rounded=1;" parent="1" vertex="1">
          <mxGeometry x="-1090.81" y="320" width="61.61" height="50" as="geometry" />
        </mxCell>
        <mxCell id="8rsW4NHF1swcHX3-PvVH-22" value="" style="endArrow=none;html=1;rounded=1;strokeWidth=1;entryX=0.917;entryY=0.643;entryDx=0;entryDy=0;entryPerimeter=0;" parent="1" target="8rsW4NHF1swcHX3-PvVH-2" edge="1">
          <mxGeometry width="50" height="50" relative="1" as="geometry">
            <mxPoint x="-1110" y="480" as="sourcePoint" />
            <mxPoint x="-1020" y="480" as="targetPoint" />
          </mxGeometry>
        </mxCell>
        <mxCell id="8rsW4NHF1swcHX3-PvVH-23" value="Object : csv Files&lt;div&gt;Interface: Folders&lt;/div&gt;" style="text;html=1;align=center;verticalAlign=middle;whiteSpace=wrap;rounded=1;" parent="1" vertex="1">
          <mxGeometry x="-1110" y="490" width="100" height="30" as="geometry" />
        </mxCell>
        <mxCell id="8rsW4NHF1swcHX3-PvVH-24" value="" style="html=1;verticalLabelPosition=bottom;align=center;labelBackgroundColor=#ffffff;verticalAlign=top;strokeWidth=2;strokeColor=#d79b00;shadow=0;dashed=0;shape=mxgraph.ios7.icons.data;fillColor=#ffe6cc;rounded=1;" parent="1" vertex="1">
          <mxGeometry x="-805" y="281" width="50" height="59" as="geometry" />
        </mxCell>
        <mxCell id="8rsW4NHF1swcHX3-PvVH-25" value="" style="html=1;verticalLabelPosition=bottom;align=center;labelBackgroundColor=#ffffff;verticalAlign=top;strokeWidth=2;strokeColor=#666666;shadow=0;dashed=0;shape=mxgraph.ios7.icons.data;fillColor=#f5f5f5;fontColor=#333333;rounded=1;" parent="1" vertex="1">
          <mxGeometry x="-605" y="279" width="50" height="59" as="geometry" />
        </mxCell>
        <mxCell id="8rsW4NHF1swcHX3-PvVH-26" value="" style="html=1;verticalLabelPosition=bottom;align=center;labelBackgroundColor=#ffffff;verticalAlign=top;strokeWidth=2;strokeColor=#d79b00;shadow=0;dashed=0;shape=mxgraph.ios7.icons.data;fillColor=#FFD966;rounded=1;" parent="1" vertex="1">
          <mxGeometry x="-405" y="281" width="50" height="59" as="geometry" />
        </mxCell>
        <mxCell id="8rsW4NHF1swcHX3-PvVH-27" value="" style="html=1;shadow=0;dashed=0;align=center;verticalAlign=middle;shape=mxgraph.arrows2.arrow;dy=0.6;dx=40;notch=15;fillColor=#cce5ff;strokeColor=#36393d;rounded=1;" parent="1" vertex="1">
          <mxGeometry x="-1000" y="310" width="150" height="70" as="geometry" />
        </mxCell>
        <mxCell id="8rsW4NHF1swcHX3-PvVH-28" value="" style="html=1;shadow=0;dashed=0;align=center;verticalAlign=middle;shape=mxgraph.arrows2.arrow;dy=0.6;dx=40;notch=15;fillColor=#cce5ff;strokeColor=#36393d;rounded=1;" parent="1" vertex="1">
          <mxGeometry x="-310" y="310" width="150" height="70" as="geometry" />
        </mxCell>
        <mxCell id="8rsW4NHF1swcHX3-PvVH-29" value="" style="html=1;shadow=0;dashed=0;align=center;verticalAlign=middle;shape=mxgraph.arrows2.arrow;dy=0.66;dx=27.8;notch=15;fillColor=#cce5ff;strokeColor=#36393d;rounded=1;" parent="1" vertex="1">
          <mxGeometry x="-710" y="320" width="60" height="50" as="geometry" />
        </mxCell>
        <mxCell id="8rsW4NHF1swcHX3-PvVH-30" value="" style="html=1;shadow=0;dashed=0;align=center;verticalAlign=middle;shape=mxgraph.arrows2.arrow;dy=0.66;dx=27.8;notch=15;fillColor=#cce5ff;strokeColor=#36393d;rounded=1;" parent="1" vertex="1">
          <mxGeometry x="-510" y="320" width="60" height="50" as="geometry" />
        </mxCell>
        <mxCell id="8rsW4NHF1swcHX3-PvVH-32" value="Raw Data" style="text;html=1;align=center;verticalAlign=middle;whiteSpace=wrap;rounded=1;" parent="1" vertex="1">
          <mxGeometry x="-810" y="360" width="60" height="30" as="geometry" />
        </mxCell>
        <mxCell id="8rsW4NHF1swcHX3-PvVH-33" value="Cleaned &amp;amp; Standardised Data" style="text;html=1;align=center;verticalAlign=middle;whiteSpace=wrap;rounded=1;" parent="1" vertex="1">
          <mxGeometry x="-640" y="360" width="120" height="30" as="geometry" />
        </mxCell>
        <mxCell id="8rsW4NHF1swcHX3-PvVH-34" value="Business Ready Data" style="text;html=1;align=center;verticalAlign=middle;whiteSpace=wrap;rounded=1;" parent="1" vertex="1">
          <mxGeometry x="-430" y="360" width="100" height="30" as="geometry" />
        </mxCell>
        <mxCell id="8rsW4NHF1swcHX3-PvVH-38" value="" style="endArrow=none;html=1;rounded=1;entryX=0.917;entryY=0.644;entryDx=0;entryDy=0;entryPerimeter=0;fillColor=#ffe6cc;strokeColor=#d79b00;" parent="1" edge="1">
          <mxGeometry width="50" height="50" relative="1" as="geometry">
            <mxPoint x="-830.02" y="399.53000000000003" as="sourcePoint" />
            <mxPoint x="-729.98" y="399.50000000000006" as="targetPoint" />
          </mxGeometry>
        </mxCell>
        <mxCell id="8rsW4NHF1swcHX3-PvVH-39" value="" style="endArrow=none;html=1;rounded=1;entryX=0.917;entryY=0.644;entryDx=0;entryDy=0;entryPerimeter=0;fillColor=#f5f5f5;strokeColor=#666666;" parent="1" edge="1">
          <mxGeometry width="50" height="50" relative="1" as="geometry">
            <mxPoint x="-625" y="399.53000000000003" as="sourcePoint" />
            <mxPoint x="-524.96" y="399.50000000000006" as="targetPoint" />
          </mxGeometry>
        </mxCell>
        <mxCell id="8rsW4NHF1swcHX3-PvVH-40" value="" style="endArrow=none;html=1;rounded=1;entryX=0.917;entryY=0.644;entryDx=0;entryDy=0;entryPerimeter=0;strokeColor=#FFD966;" parent="1" edge="1">
          <mxGeometry width="50" height="50" relative="1" as="geometry">
            <mxPoint x="-430.04" y="399.53000000000003" as="sourcePoint" />
            <mxPoint x="-330.00000000000006" y="399.50000000000006" as="targetPoint" />
          </mxGeometry>
        </mxCell>
        <mxCell id="8rsW4NHF1swcHX3-PvVH-41" value="&lt;font style=&quot;font-size: 10px;&quot;&gt;&lt;b style=&quot;&quot;&gt;Object&lt;/b&gt; : Tables&lt;/font&gt;&lt;div&gt;&lt;span style=&quot;font-size: 10px;&quot;&gt;&lt;br&gt;&lt;/span&gt;&lt;div&gt;&lt;font style=&quot;font-size: 10px;&quot;&gt;&lt;b&gt;Load&lt;/b&gt;:&amp;nbsp;&lt;/font&gt;&lt;/div&gt;&lt;div&gt;&lt;ul&gt;&lt;li style=&quot;&quot;&gt;&lt;span style=&quot;background-color: transparent; color: light-dark(rgb(0, 0, 0), rgb(255, 255, 255));&quot;&gt;&lt;font style=&quot;font-size: 10px;&quot;&gt;Batch Processing&lt;/font&gt;&lt;/span&gt;&lt;/li&gt;&lt;li style=&quot;&quot;&gt;&lt;span style=&quot;background-color: transparent; color: light-dark(rgb(0, 0, 0), rgb(255, 255, 255));&quot;&gt;&lt;font style=&quot;font-size: 10px;&quot;&gt;Full Load&amp;nbsp;&lt;/font&gt;&lt;/span&gt;&lt;/li&gt;&lt;li style=&quot;&quot;&gt;&lt;span style=&quot;background-color: transparent; color: light-dark(rgb(0, 0, 0), rgb(255, 255, 255));&quot;&gt;&lt;font style=&quot;font-size: 10px;&quot;&gt;Truncate &amp;amp; Insert&lt;/font&gt;&lt;/span&gt;&lt;/li&gt;&lt;/ul&gt;&lt;/div&gt;&lt;div&gt;&lt;div&gt;&lt;font style=&quot;font-size: 10px;&quot;&gt;&lt;b&gt;No Transformations&lt;/b&gt;&lt;/font&gt;&lt;/div&gt;&lt;/div&gt;&lt;div&gt;&lt;font style=&quot;font-size: 10px;&quot;&gt;&lt;b&gt;&lt;br&gt;&lt;/b&gt;&lt;/font&gt;&lt;/div&gt;&lt;div&gt;&lt;font style=&quot;font-size: 10px;&quot;&gt;&lt;b style=&quot;&quot;&gt;Data Model&lt;/b&gt; : None as-is&lt;/font&gt;&lt;/div&gt;&lt;/div&gt;" style="text;html=1;align=left;verticalAlign=top;whiteSpace=wrap;rounded=1;" parent="1" vertex="1">
          <mxGeometry x="-840" y="414" width="120" height="226" as="geometry" />
        </mxCell>
        <mxCell id="8rsW4NHF1swcHX3-PvVH-44" value="&lt;font style=&quot;font-size: 10px;&quot;&gt;&lt;b style=&quot;&quot;&gt;Object&lt;/b&gt; : Tables&lt;/font&gt;&lt;div&gt;&lt;span style=&quot;font-size: 10px;&quot;&gt;&lt;br&gt;&lt;/span&gt;&lt;div&gt;&lt;font style=&quot;font-size: 10px;&quot;&gt;&lt;b&gt;Load&lt;/b&gt;:&amp;nbsp;&lt;/font&gt;&lt;/div&gt;&lt;div&gt;&lt;ul&gt;&lt;li style=&quot;&quot;&gt;&lt;span style=&quot;background-color: transparent; color: light-dark(rgb(0, 0, 0), rgb(255, 255, 255));&quot;&gt;&lt;font style=&quot;font-size: 10px;&quot;&gt;Batch Processing&lt;/font&gt;&lt;/span&gt;&lt;/li&gt;&lt;li style=&quot;&quot;&gt;&lt;span style=&quot;background-color: transparent; color: light-dark(rgb(0, 0, 0), rgb(255, 255, 255));&quot;&gt;&lt;font style=&quot;font-size: 10px;&quot;&gt;Full Load&amp;nbsp;&lt;/font&gt;&lt;/span&gt;&lt;/li&gt;&lt;li style=&quot;&quot;&gt;&lt;span style=&quot;background-color: transparent; color: light-dark(rgb(0, 0, 0), rgb(255, 255, 255));&quot;&gt;&lt;font style=&quot;font-size: 10px;&quot;&gt;Truncate &amp;amp; Insert&lt;/font&gt;&lt;/span&gt;&lt;/li&gt;&lt;/ul&gt;&lt;/div&gt;&lt;div&gt;&lt;div&gt;&lt;font style=&quot;font-size: 10px;&quot;&gt;&lt;b&gt;Transformations:&lt;/b&gt;&lt;/font&gt;&lt;/div&gt;&lt;/div&gt;&lt;div&gt;&lt;ul&gt;&lt;li&gt;&lt;font style=&quot;font-size: 10px;&quot;&gt;Cleaning&lt;/font&gt;&lt;/li&gt;&lt;li&gt;&lt;span style=&quot;font-size: 10px;&quot;&gt;Standardise&lt;/span&gt;&lt;/li&gt;&lt;li&gt;&lt;span style=&quot;font-size: 10px;&quot;&gt;Normalisation&lt;/span&gt;&lt;/li&gt;&lt;li&gt;&lt;span style=&quot;font-size: 10px;&quot;&gt;Derived Columns&lt;/span&gt;&lt;/li&gt;&lt;li&gt;&lt;span style=&quot;font-size: 10px;&quot;&gt;Enrichment&lt;/span&gt;&lt;/li&gt;&lt;/ul&gt;&lt;/div&gt;&lt;div&gt;&lt;font style=&quot;font-size: 10px;&quot;&gt;&lt;b style=&quot;&quot;&gt;Data Model&lt;/b&gt; : None as-is&lt;/font&gt;&lt;/div&gt;&lt;/div&gt;" style="text;html=1;align=left;verticalAlign=middle;whiteSpace=wrap;rounded=1;" parent="1" vertex="1">
          <mxGeometry x="-640" y="414" width="120" height="236" as="geometry" />
        </mxCell>
        <mxCell id="8rsW4NHF1swcHX3-PvVH-45" value="&lt;font style=&quot;font-size: 10px;&quot;&gt;&lt;b style=&quot;&quot;&gt;Object&lt;/b&gt; : Views&lt;/font&gt;&lt;div&gt;&lt;span style=&quot;font-size: 10px;&quot;&gt;&lt;br&gt;&lt;/span&gt;&lt;div&gt;&lt;font style=&quot;font-size: 10px;&quot;&gt;&lt;b&gt;No Load&lt;/b&gt;&lt;/font&gt;&lt;/div&gt;&lt;div&gt;&lt;font style=&quot;font-size: 10px;&quot;&gt;&lt;b&gt;&lt;br&gt;&lt;/b&gt;&lt;/font&gt;&lt;/div&gt;&lt;div&gt;&lt;div&gt;&lt;font style=&quot;font-size: 10px;&quot;&gt;&lt;b&gt;Transformations:&lt;/b&gt;&lt;/font&gt;&lt;/div&gt;&lt;/div&gt;&lt;div&gt;&lt;ul&gt;&lt;li&gt;&lt;span style=&quot;font-size: 10px;&quot;&gt;Data Integrations&lt;/span&gt;&lt;/li&gt;&lt;li&gt;&lt;span style=&quot;font-size: 10px;&quot;&gt;Aggregations&lt;/span&gt;&lt;/li&gt;&lt;li&gt;&lt;span style=&quot;font-size: 10px;&quot;&gt;Business Logics&lt;/span&gt;&lt;/li&gt;&lt;/ul&gt;&lt;/div&gt;&lt;div&gt;&lt;font style=&quot;font-size: 10px;&quot;&gt;&lt;b style=&quot;&quot;&gt;Data Model:&lt;/b&gt;&lt;/font&gt;&lt;/div&gt;&lt;div&gt;&lt;ul&gt;&lt;li&gt;&lt;font style=&quot;font-size: 10px;&quot;&gt;Star Schema&lt;/font&gt;&lt;/li&gt;&lt;li&gt;&lt;font style=&quot;font-size: 10px;&quot;&gt;Flat Table&lt;/font&gt;&lt;/li&gt;&lt;li&gt;&lt;font style=&quot;font-size: 10px;&quot;&gt;Aggregated Table&lt;/font&gt;&lt;/li&gt;&lt;/ul&gt;&lt;/div&gt;&lt;/div&gt;" style="text;html=1;align=left;verticalAlign=top;whiteSpace=wrap;rounded=1;" parent="1" vertex="1">
          <mxGeometry x="-440" y="414" width="120" height="226" as="geometry" />
        </mxCell>
        <mxCell id="3Sye57HfwdnO7i_akBie-1" value="" style="image;aspect=fixed;html=1;points=[];align=center;fontSize=12;image=img/lib/azure2/power_platform/PowerBI.svg;rounded=1;" parent="1" vertex="1">
          <mxGeometry x="-125.375" y="220" width="43.5" height="58" as="geometry" />
        </mxCell>
        <mxCell id="3Sye57HfwdnO7i_akBie-2" value="" style="verticalLabelPosition=bottom;html=1;verticalAlign=top;align=center;strokeColor=none;fillColor=#00BEF2;shape=mxgraph.azure.sql_reporting;rounded=1;" parent="1" vertex="1">
          <mxGeometry x="-119.995" y="338" width="40" height="50" as="geometry" />
        </mxCell>
        <mxCell id="3Sye57HfwdnO7i_akBie-3" value="" style="verticalLabelPosition=bottom;aspect=fixed;html=1;verticalAlign=top;strokeColor=none;align=center;outlineConnect=0;shape=mxgraph.citrix.reporting;rounded=1;" parent="1" vertex="1">
          <mxGeometry x="-132.62" y="449" width="50.75" height="56.94" as="geometry" />
        </mxCell>
        <mxCell id="3Sye57HfwdnO7i_akBie-4" value="" style="points=[[0,0,0],[0.25,0,0],[0.5,0,0],[0.75,0,0],[1,0,0],[0,1,0],[0.25,1,0],[0.5,1,0],[0.75,1,0],[1,1,0],[0,0.25,0],[0,0.5,0],[0,0.75,0],[1,0.25,0],[1,0.5,0],[1,0.75,0]];outlineConnect=0;fontColor=#232F3E;fillColor=#01A88D;strokeColor=#ffffff;dashed=0;verticalLabelPosition=bottom;verticalAlign=top;align=center;html=1;fontSize=12;fontStyle=0;aspect=fixed;shape=mxgraph.aws4.resourceIcon;resIcon=mxgraph.aws4.machine_learning;rounded=1;" parent="1" vertex="1">
          <mxGeometry x="-134.375" y="562" width="58" height="58" as="geometry" />
        </mxCell>
        <mxCell id="3Sye57HfwdnO7i_akBie-6" value="" style="image;aspect=fixed;html=1;points=[];align=center;fontSize=12;image=img/lib/azure2/databases/Azure_Database_PostgreSQL_Server.svg;rounded=1;" parent="1" vertex="1">
          <mxGeometry x="-880" y="66.67" width="40" height="53.33" as="geometry" />
        </mxCell>
      </root>
    </mxGraphModel>
  </diagram>
</mxfile>
